<svg width="20" height="20" viewBox="0 0 20 20" fill="none" xmlns="http://www.w3.org/2000/svg">
<path d="M14 1.99994H5.99999C3.79085 1.99994 1.99999 3.7908 1.99999 5.99994V13.9999C1.99999 16.2091 3.79085 17.9999 5.99999 17.9999H14C16.2091 17.9999 18 16.2091 18 13.9999V5.99994C18 3.7908 16.2091 1.99994 14 1.99994Z" stroke="#C4B8FF" stroke-width="2" stroke-linecap="round" stroke-linejoin="round"/>
<path d="M13.2 9.49594C13.2987 10.1617 13.185 10.8417 12.875 11.4391C12.565 12.0366 12.0745 12.5211 11.4733 12.8237C10.8721 13.1263 10.1908 13.2316 9.52622 13.1247C8.86169 13.0178 8.2478 12.704 7.77186 12.2281C7.29593 11.7521 6.98218 11.1382 6.87525 10.4737C6.76832 9.80918 6.87365 9.12785 7.17625 8.52664C7.47886 7.92542 7.96334 7.43493 8.56078 7.12493C9.15822 6.81493 9.8382 6.70121 10.504 6.79994C11.1831 6.90064 11.8119 7.21711 12.2973 7.70258C12.7828 8.18806 13.0993 8.8168 13.2 9.49594Z" stroke="#C4B8FF" stroke-width="2" stroke-linecap="round" stroke-linejoin="round"/>
<path d="M14.4 5.59998H14.4087" stroke="#C4B8FF" stroke-width="2" stroke-linecap="round" stroke-linejoin="round"/>
</svg>
