<svg width="20" height="20" viewBox="0 0 20 20" fill="none" xmlns="http://www.w3.org/2000/svg">
<path d="M8.39999 10.7999C8.74356 11.2593 9.18188 11.6393 9.68523 11.9143C10.1886 12.1893 10.7452 12.3528 11.3173 12.3938C11.8894 12.4348 12.4637 12.3522 13.0011 12.1518C13.5385 11.9513 14.0265 11.6376 14.432 11.2319L16.832 8.83195C17.5606 8.07754 17.9638 7.06713 17.9547 6.01834C17.9456 4.96956 17.5249 3.96631 16.7833 3.22467C16.0416 2.48304 15.0384 2.06237 13.9896 2.05325C12.9408 2.04414 11.9304 2.44732 11.176 3.17595L9.79999 4.54395" stroke="#C4B8FF" stroke-width="2" stroke-linecap="round" stroke-linejoin="round"/>
<path d="M11.6 9.19997C11.2564 8.74067 10.8181 8.36063 10.3148 8.08562C9.8114 7.81061 9.25479 7.64708 8.68268 7.60611C8.11056 7.56513 7.53633 7.64768 6.99892 7.84815C6.46151 8.04862 5.97351 8.36232 5.568 8.76797L3.168 11.168C2.43937 11.9224 2.03619 12.9328 2.0453 13.9816C2.05442 15.0304 2.47509 16.0336 3.21672 16.7752C3.95836 17.5169 4.96161 17.9376 6.01039 17.9467C7.05918 17.9558 8.06959 17.5526 8.824 16.824L10.192 15.456" stroke="#C4B8FF" stroke-width="2" stroke-linecap="round" stroke-linejoin="round"/>
</svg>
