<svg width="20" height="20" viewBox="0 0 20 20" fill="none" xmlns="http://www.w3.org/2000/svg">
<path d="M17.2 9.59995C17.2027 10.6558 16.9561 11.6975 16.48 12.6399C15.9155 13.7693 15.0478 14.7193 13.974 15.3834C12.9001 16.0475 11.6626 16.3995 10.4 16.3999C9.3441 16.4027 8.30249 16.156 7.36 15.68L2.8 17.1999L4.32 12.6399C3.84394 11.6975 3.59724 10.6558 3.6 9.59995C3.60048 8.33736 3.95248 7.09983 4.61657 6.02599C5.28066 4.95215 6.2306 4.0844 7.36 3.51995C8.30249 3.04389 9.3441 2.7972 10.4 2.79995H10.8C12.4675 2.89194 14.0424 3.59576 15.2233 4.77664C16.4042 5.95751 17.108 7.53247 17.2 9.19995V9.59995Z" stroke="#C4B8FF" stroke-width="2" stroke-linecap="round" stroke-linejoin="round"/>
</svg>
