<svg width="28" height="26" viewBox="0 0 28 26" fill="none" xmlns="http://www.w3.org/2000/svg">
<path d="M13.9997 9.51239C14.7532 9.51239 15.4519 9.69011 16.0944 10.0446C16.6569 10.355 17.1604 10.75 17.6042 11.2302L17.7907 11.4411C18.4124 12.1516 18.9618 12.9184 19.4391 13.7399C19.8576 14.46 20.3403 15.1372 20.8864 15.7722L21.1237 16.0417C21.9014 16.8861 22.6854 17.7415 23.4743 18.6081C24.2611 19.4725 24.654 20.4811 24.654 21.6335C24.6539 22.6749 24.316 23.5772 23.6403 24.3415C22.9649 25.1055 22.1297 25.4879 21.1335 25.488C19.9343 25.488 18.746 25.388 17.569 25.1882C16.3905 24.9881 15.2004 24.8874 13.9997 24.8874C12.7991 24.8874 11.6097 24.9881 10.4313 25.1882C9.2543 25.388 8.0661 25.488 6.86687 25.488C5.87054 25.488 5.03452 25.1055 4.35905 24.3415C3.68355 23.5773 3.34541 22.6748 3.34538 21.6335C3.34538 20.4811 3.73922 19.4725 4.52605 18.6081L6.87566 16.0417C7.52074 15.3521 8.07746 14.6017 8.5446 13.7897C8.95258 13.0806 9.42832 12.4097 9.97234 11.777L10.2096 11.5085C10.6975 10.9319 11.2629 10.4548 11.9059 10.0778C12.5483 9.70123 13.2464 9.51244 13.9997 9.51239ZM3.99968 5.51239C4.92979 5.51239 5.71604 5.83324 6.35808 6.47528C7.00012 7.11732 7.32097 7.90357 7.32097 8.83368C7.32089 9.76357 6.99993 10.5492 6.35808 11.1911C5.71604 11.8331 4.92979 12.154 3.99968 12.154C3.06971 12.1539 2.28422 11.8331 1.64226 11.1911C1.00029 10.5491 0.679442 9.76364 0.679367 8.83368C0.679367 7.90357 1.00022 7.11732 1.64226 6.47528C2.28419 5.83343 3.06979 5.51247 3.99968 5.51239ZM23.9997 5.51239C24.9298 5.51239 25.716 5.83324 26.3581 6.47528C27.0001 7.11732 27.321 7.90357 27.321 8.83368C27.3209 9.76357 26.9999 10.5492 26.3581 11.1911C25.716 11.8331 24.9298 12.154 23.9997 12.154C23.0697 12.1539 22.2842 11.8331 21.6423 11.1911C21.0003 10.5491 20.6794 9.76364 20.6794 8.83368C20.6794 7.90357 21.0002 7.11732 21.6423 6.47528C22.2842 5.83343 23.0698 5.51247 23.9997 5.51239ZM9.99968 0.179382C10.9298 0.179382 11.716 0.500235 12.3581 1.14227C12.9999 1.78421 13.3209 2.56981 13.321 3.49969C13.321 4.4298 13.0001 5.21606 12.3581 5.85809C11.716 6.50013 10.9298 6.82098 9.99968 6.82098C9.06979 6.82091 8.28419 6.49995 7.64226 5.85809C7.00022 5.21606 6.67937 4.4298 6.67937 3.49969C6.67944 2.56973 7.00029 1.78424 7.64226 1.14227C8.28422 0.50031 9.06971 0.179457 9.99968 0.179382ZM17.9997 0.179382C18.9298 0.179382 19.716 0.500235 20.3581 1.14227C20.9999 1.78421 21.3209 2.56981 21.321 3.49969C21.321 4.4298 21.0001 5.21606 20.3581 5.85809C19.716 6.50013 18.9298 6.82098 17.9997 6.82098C17.0698 6.82091 16.2842 6.49995 15.6423 5.85809C15.0002 5.21606 14.6794 4.4298 14.6794 3.49969C14.6794 2.56973 15.0003 1.78424 15.6423 1.14227C16.2842 0.50031 17.0697 0.179457 17.9997 0.179382Z" fill="white" stroke="white" stroke-width="0.025"/>
</svg>
